<svg width="14" height="18" viewBox="0 0 14 18" fill="none" xmlns="http://www.w3.org/2000/svg">
<path d="M1 6.75C0.801088 6.75 0.610322 6.82902 0.46967 6.96967C0.329018 7.11032 0.25 7.30109 0.25 7.5C0.252249 9.15946 0.865039 10.7601 1.97157 11.9968C3.0781 13.2334 4.601 14.0197 6.25 14.2057V16.5H4.75C4.55109 16.5 4.36032 16.579 4.21967 16.7197C4.07902 16.8603 4 17.0511 4 17.25C4 17.4489 4.07902 17.6397 4.21967 17.7803C4.36032 17.921 4.55109 18 4.75 18H9.25C9.44891 18 9.63968 17.921 9.78033 17.7803C9.92098 17.6397 10 17.4489 10 17.25C10 17.0511 9.92098 16.8603 9.78033 16.7197C9.63968 16.579 9.44891 16.5 9.25 16.5H7.75V14.2057C9.399 14.0197 10.9219 13.2334 12.0284 11.9968C13.135 10.7601 13.7478 9.15946 13.75 7.5C13.75 7.30109 13.671 7.11032 13.5303 6.96967C13.3897 6.82902 13.1989 6.75 13 6.75C12.8011 6.75 12.6103 6.82902 12.4697 6.96967C12.329 7.11032 12.25 7.30109 12.25 7.5C12.25 8.89239 11.6969 10.2277 10.7123 11.2123C9.72774 12.1969 8.39239 12.75 7 12.75C5.60761 12.75 4.27226 12.1969 3.28769 11.2123C2.30312 10.2277 1.75 8.89239 1.75 7.5C1.75 7.30109 1.67098 7.11032 1.53033 6.96967C1.38968 6.82902 1.19891 6.75 1 6.75Z" fill="white"/>
<path d="M7 11.25C7.9942 11.2488 8.94733 10.8533 9.65034 10.1503C10.3533 9.44733 10.7488 8.4942 10.75 7.5V3.75C10.75 2.75544 10.3549 1.80161 9.65165 1.09835C8.94839 0.395088 7.99456 0 7 0C6.00544 0 5.05161 0.395088 4.34835 1.09835C3.64509 1.80161 3.25 2.75544 3.25 3.75V7.5C3.25119 8.4942 3.64666 9.44733 4.34967 10.1503C5.05267 10.8533 6.0058 11.2488 7 11.25ZM4.75 3.75C4.75 3.15326 4.98705 2.58097 5.40901 2.15901C5.83097 1.73705 6.40326 1.5 7 1.5C7.59674 1.5 8.16903 1.73705 8.59099 2.15901C9.01295 2.58097 9.25 3.15326 9.25 3.75V7.5C9.25 8.09674 9.01295 8.66903 8.59099 9.09099C8.16903 9.51295 7.59674 9.75 7 9.75C6.40326 9.75 5.83097 9.51295 5.40901 9.09099C4.98705 8.66903 4.75 8.09674 4.75 7.5V3.75Z" fill="white"/>
</svg>
